<svg width="179" height="34" viewBox="0 0 179 34" fill="none" xmlns="http://www.w3.org/2000/svg">
<path d="M11.9092 13.3213H12.4219V17.4961H11.9092C11.7236 16.7637 11.499 16.3047 11.2354 16.1191C10.9717 15.9336 10.3955 15.8408 9.50684 15.8408H5.24414V21.9932C5.24414 22.4229 5.33691 22.7256 5.52246 22.9014C5.71777 23.0771 6.04492 23.165 6.50391 23.165H9.50684C10.5811 23.165 11.3232 23.1064 11.7334 22.9893C12.1436 22.8721 12.4902 22.6572 12.7734 22.3447C13.0566 22.0225 13.3594 21.5049 13.6816 20.792H14.1943L13.4033 24H1.02539V23.4873C1.79688 23.4873 2.31445 23.292 2.57812 22.9014C2.8418 22.501 2.97363 21.7979 2.97363 20.792V10.0547C2.97363 9.00977 2.83691 8.29199 2.56348 7.90137C2.29004 7.51074 1.77734 7.31543 1.02539 7.31543V6.81738H13.4033V9.68848H13.0811C12.9053 8.86816 12.6514 8.32617 12.3193 8.0625C11.9971 7.78906 11.2891 7.65234 10.1953 7.65234H5.24414V15.0059H10.0488C10.7031 15.0059 11.1475 14.8887 11.3818 14.6543C11.626 14.4199 11.8018 13.9756 11.9092 13.3213ZM24.5361 18.1553H30.4102V19.2832H24.5361V18.1553ZM68.2471 20.25H68.7598L67.7051 24H55.2539V23.4873C55.957 23.4873 56.4551 23.2676 56.748 22.8281C57.0508 22.3887 57.2021 21.6514 57.2021 20.6162V9.80566C57.2021 8.87793 57.0605 8.2334 56.7773 7.87207C56.5039 7.50098 55.9961 7.31543 55.2539 7.31543V6.81738H61.4062V7.31543C60.7227 7.31543 60.2295 7.52539 59.9268 7.94531C59.6338 8.36523 59.4873 9.05859 59.4873 10.0254V21.5098C59.4873 22.1445 59.6191 22.5791 59.8828 22.8135C60.1562 23.0479 60.6738 23.165 61.4355 23.165H64.8486C65.9033 23.165 66.6406 22.9844 67.0605 22.623C67.4805 22.252 67.876 21.4609 68.2471 20.25ZM80.4199 13.0869H80.9326V22.0225C80.9326 22.6084 81.0596 22.999 81.3135 23.1943C81.5674 23.3896 82.0312 23.4873 82.7051 23.4873V24H76.8896V23.4873C77.7393 23.4873 78.2861 23.3945 78.5303 23.209C78.7744 23.0137 78.8965 22.6182 78.8965 22.0225V15.5039C78.8965 14.8594 78.7842 14.4346 78.5596 14.2295C78.335 14.0244 77.7783 13.9219 76.8896 13.9219V13.4092L80.4199 13.0869ZM79.9512 7.59375C80.3125 7.59375 80.6152 7.7207 80.8594 7.97461C81.1133 8.21875 81.2402 8.52148 81.2402 8.88281C81.2402 9.24414 81.1133 9.55664 80.8594 9.82031C80.6055 10.0742 80.3027 10.2012 79.9512 10.2012C79.5898 10.2012 79.2773 10.0742 79.0137 9.82031C78.75 9.55664 78.6182 9.24414 78.6182 8.88281C78.6182 8.52148 78.7451 8.21875 78.999 7.97461C79.2627 7.7207 79.5801 7.59375 79.9512 7.59375ZM94.2334 5.16211H94.7461V14.6689C95.1953 14.1807 95.7373 13.7949 96.3721 13.5117C97.0166 13.2285 97.666 13.0869 98.3203 13.0869C99.6973 13.0869 100.859 13.5898 101.807 14.5957C102.764 15.5918 103.242 16.8174 103.242 18.2725C103.242 19.9814 102.598 21.3828 101.309 22.4766C100.029 23.5703 98.2617 24.1172 96.0059 24.1172C95.127 24.1172 94.0283 24.0098 92.71 23.7949V7.85742C92.71 7.02734 92.6025 6.51465 92.3877 6.31934C92.1826 6.12402 91.6602 6.02637 90.8203 6.02637V5.51367L94.2334 5.16211ZM94.7461 15.4453V21.5098C94.7461 22.3008 94.8779 22.8428 95.1416 23.1357C95.415 23.4287 95.8838 23.5752 96.5479 23.5752C97.9248 23.5752 99.0137 23.1309 99.8145 22.2422C100.615 21.3535 101.016 20.1084 101.016 18.5068C101.016 17.1689 100.669 16.0752 99.9756 15.2256C99.2822 14.376 98.4521 13.9512 97.4854 13.9512C96.4697 13.9512 95.5566 14.4492 94.7461 15.4453ZM116.235 13.0869V15.3867C117.212 14.5371 117.969 13.9414 118.506 13.5996C119.053 13.2578 119.507 13.0869 119.868 13.0869C120.542 13.0869 121.191 13.3652 121.816 13.9219L121.011 15.8115C119.878 15.1865 119.038 14.874 118.491 14.874C117.886 14.874 117.134 15.3037 116.235 16.1631V21.9932C116.235 22.5791 116.357 22.9746 116.602 23.1797C116.846 23.3848 117.314 23.4873 118.008 23.4873V24H112.397V23.4873C113.14 23.4873 113.623 23.3701 113.848 23.1357C114.082 22.9014 114.199 22.3398 114.199 21.4512V15.665C114.199 14.9326 114.072 14.459 113.818 14.2441C113.574 14.0293 112.969 13.9219 112.002 13.9219V13.4092L115.723 13.0869H116.235ZM133.564 24.3369C132.734 24.3369 132.021 24.0635 131.426 23.5166C130.83 22.96 130.532 22.291 130.532 21.5098C130.532 20.7676 130.786 20.1572 131.294 19.6787C131.812 19.1904 132.856 18.7266 134.429 18.2871C135.415 18.0137 136.079 17.7793 136.421 17.584V16.793C136.421 16.0215 136.206 15.4014 135.776 14.9326C135.347 14.4541 134.771 14.2148 134.048 14.2148C133.394 14.2148 132.812 14.4199 132.305 14.8301C131.797 15.2402 131.44 15.7969 131.235 16.5L130.693 16.3535C130.908 15.3672 131.372 14.5762 132.085 13.9805C132.808 13.3848 133.652 13.0869 134.619 13.0869C135.762 13.0869 136.685 13.4336 137.388 14.127C138.101 14.8105 138.457 15.7627 138.457 16.9834V21.5391C138.457 22.1836 138.496 22.623 138.574 22.8574C138.662 23.082 138.823 23.1943 139.058 23.1943C139.214 23.1943 139.341 23.1309 139.438 23.0039C139.536 22.8672 139.648 22.5889 139.775 22.1689H140.288C140.239 22.833 140.029 23.3604 139.658 23.751C139.297 24.1416 138.818 24.3369 138.223 24.3369C137.354 24.3369 136.753 23.834 136.421 22.8281C135.894 23.4043 135.425 23.7998 135.015 24.0146C134.604 24.2295 134.121 24.3369 133.564 24.3369ZM136.421 21.8467V18.2432C136.118 18.3701 135.679 18.5312 135.103 18.7266C134.038 19.0879 133.354 19.4492 133.052 19.8105C132.759 20.1621 132.612 20.6406 132.612 21.2461C132.612 21.7734 132.769 22.2324 133.081 22.623C133.403 23.0039 133.784 23.1943 134.224 23.1943C134.624 23.1943 135.044 23.0674 135.483 22.8135C135.923 22.5498 136.235 22.2275 136.421 21.8467ZM152.534 13.0869V15.3867C153.511 14.5371 154.268 13.9414 154.805 13.5996C155.352 13.2578 155.806 13.0869 156.167 13.0869C156.841 13.0869 157.49 13.3652 158.115 13.9219L157.31 15.8115C156.177 15.1865 155.337 14.874 154.79 14.874C154.185 14.874 153.433 15.3037 152.534 16.1631V21.9932C152.534 22.5791 152.656 22.9746 152.9 23.1797C153.145 23.3848 153.613 23.4873 154.307 23.4873V24H148.696V23.4873C149.438 23.4873 149.922 23.3701 150.146 23.1357C150.381 22.9014 150.498 22.3398 150.498 21.4512V15.665C150.498 14.9326 150.371 14.459 150.117 14.2441C149.873 14.0293 149.268 13.9219 148.301 13.9219V13.4092L152.021 13.0869H152.534ZM171.812 13.4092V13.9219C171.206 14.0098 170.903 14.3174 170.903 14.8447C170.903 15.0498 170.957 15.2793 171.064 15.5332L173.613 21.5391L175.474 15.9287C175.62 15.4697 175.693 15.1035 175.693 14.8301C175.693 14.2637 175.337 13.9609 174.624 13.9219V13.4092H178.374V13.9219C177.808 13.9219 177.339 14.1172 176.968 14.5078C176.597 14.8887 176.26 15.5234 175.957 16.4121L171.724 28.9219C171.313 30.1133 170.791 31.0557 170.156 31.749C169.521 32.4424 168.872 32.7891 168.208 32.7891C167.817 32.7891 167.378 32.6377 166.89 32.335L167.578 30.5039C167.949 30.6699 168.291 30.7529 168.604 30.7529C169.238 30.7529 169.761 30.5527 170.171 30.1523C170.591 29.752 170.967 29.083 171.299 28.1455L172.676 24.293L168.867 15.5039C168.584 14.8691 168.301 14.4492 168.018 14.2441C167.744 14.0391 167.31 13.9316 166.714 13.9219V13.4092H171.812Z" fill="#3E3F43"/>
</svg>
