<svg  width="526" height="800" viewBox="0 0 526 800" fill="none" xmlns="http://www.w3.org/2000/svg">
<path d="M156 0H526V800H276C209.726 800 156 746.274 156 680V0Z" fill="#F9BDBD"/>
<path d="M200.001 600C310.156 600 400 510.156 400 400.001C400 289.845 310.156 200 200.001 200C89.8438 200 0 289.845 0 400.001C0 510.156 89.8438 600 200.001 600Z" fill="#DAA520"/>
<path d="M119.625 305.874V526.656L168.212 483.977V263.195H161.89L158.525 265.763H126.586L126.576 263.152L121.322 263.195L72.7328 305.872H119.623L119.625 305.874Z" fill="#5DDDD3"/>
<path d="M79.4273 305.874H114.109L158.525 265.763H123.844L79.4273 305.874Z" fill="white"/>
<path d="M131.902 295.091L126.148 295.003L114.111 305.874H79.4297L92.032 294.491L85.7984 294.398L72.7344 305.874V526.656H119.624L131.899 515.875V295.091H131.902Z" fill="#FF757C"/>
<path d="M195.066 305.874V526.656L243.652 483.977V263.195V263.193H237.33L233.967 265.765H202.03L202.02 263.154L196.764 263.193L148.175 305.872H195.065H195.067V305.874H195.066Z" fill="#ECF0F1"/>
<path d="M154.87 305.874H189.55L233.966 265.763H199.286L154.87 305.874Z" fill="white"/>
<path d="M207.341 295.091L201.588 295.003L189.551 305.874H154.87L167.473 294.491L161.239 294.398L148.175 305.874V526.656H195.065L207.34 515.875V295.091H207.341Z" fill="#FF757C"/>
<path d="M297.611 255.352L261.637 309.09L318.429 522.441L354.403 468.703L297.611 255.352L291.502 256.979L288.913 260.325L258.049 268.541L257.369 266.022L252.301 267.413L216.325 321.152L261.635 309.09L297.611 255.352Z" fill="#5DDDD3"/>
<path d="M222.792 319.43L256.307 310.51L288.91 260.325L255.398 269.245L222.793 319.433V319.43H222.792Z" fill="white"/>
<path d="M270.726 295.512L265.141 296.909L256.307 310.51L222.795 319.43L232.047 305.191L226 306.703L216.327 321.154L273.12 534.505L318.432 522.444L327.52 508.87L270.728 295.514L270.726 295.512Z" fill="#FF757C"/>
<path d="M308.134 314.655L305.281 303.801L285.178 336.67L288.029 347.525L308.134 314.654V314.655Z" fill="white"/>
<path d="M297.275 308.491L295.761 301.438L282.193 323.625L283.709 330.677L297.277 308.492H297.275V308.491Z" fill="white"/>
</svg>
