<svg width="400" height="400" viewBox="0 0 400 400" fill="none" xmlns="http://www.w3.org/2000/svg">
<path d="M200.001 400C310.156 400 400 310.156 400 200.001C400 89.8453 310.156 0 200.001 0C89.8438 0 0 89.8453 0 200.001C0 310.156 89.8438 400 200.001 400Z" fill="#DAA520"/>
<path d="M119.625 105.874V326.656L168.212 283.977V63.1953H161.89L158.525 65.7633H126.586L126.576 63.1523L121.322 63.1953L72.7328 105.872H119.623L119.625 105.874Z" fill="#5DDDD3"/>
<path d="M79.4273 105.874H114.109L158.525 65.7633H123.844L79.4273 105.874Z" fill="white"/>
<path d="M131.902 95.0914L126.148 95.0031L114.111 105.874H79.4297L92.032 94.4906L85.7984 94.3984L72.7344 105.874V326.656H119.624L131.899 315.875V95.0914H131.902Z" fill="#FF757C"/>
<path d="M195.066 105.874V326.656L243.652 283.977V63.1953V63.193H237.33L233.967 65.7649H202.03L202.02 63.1539L196.764 63.193L148.175 105.872H195.065H195.067V105.874H195.066Z" fill="#ECF0F1"/>
<path d="M154.87 105.874H189.55L233.966 65.7633H199.286L154.87 105.874Z" fill="white"/>
<path d="M207.341 95.0914L201.588 95.0031L189.551 105.874H154.87L167.473 94.4906L161.239 94.3984L148.175 105.874V326.656H195.065L207.34 315.875V95.0914H207.341Z" fill="#FF757C"/>
<path d="M297.611 55.3516L261.637 109.09L318.429 322.441L354.403 268.703L297.611 55.3516L291.502 56.9789L288.913 60.325L258.049 68.5406L257.369 66.0219L252.301 67.4133L216.325 121.152L261.635 109.09L297.611 55.3516Z" fill="#5DDDD3"/>
<path d="M222.792 119.43L256.307 110.51L288.91 60.325L255.398 69.2453L222.793 119.433V119.43H222.792Z" fill="white"/>
<path d="M270.726 95.5117L265.141 96.9094L256.307 110.51L222.795 119.43L232.047 105.191L226 106.703L216.327 121.154L273.12 334.505L318.432 322.444L327.52 308.87L270.728 95.5141L270.726 95.5117Z" fill="#FF757C"/>
<path d="M308.134 114.655L305.281 103.801L285.178 136.67L288.029 147.525L308.134 114.654V114.655Z" fill="white"/>
<path d="M297.275 108.491L295.761 101.438L282.193 123.625L283.709 130.677L297.277 108.492H297.275V108.491Z" fill="white"/>
</svg>
